<svg xmlns="http://www.w3.org/2000/svg" width="66" height="64" fill="none"><rect width="66" height="64" fill="#FFD6D1" rx="12"/><g clip-path="url(#a)"><path fill="#D45947" d="m33 7.195 4.463 3.955 5.684-1.787 2.48 5.44 5.908.693.069 5.977 5.117 3.047-2.364 5.498 3.448 4.873-4.375 4.052 1.172 5.87-5.645 1.914-1.299 5.84L41.73 52l-3.544 4.805L33 53.865l-5.186 2.94L24.27 52l-5.928.566-1.299-5.84-5.645-1.913 1.172-5.87-4.375-4.052 3.448-4.873-2.364-5.498 5.118-3.047.068-5.977 5.908-.693 2.48-5.44 5.684 1.787z"/><path fill="#F1786B" d="M33 50.086c9.935 0 17.988-8.097 17.988-18.086S42.935 13.914 33 13.914 15.012 22.011 15.012 32 23.065 50.086 33 50.086"/><path fill="#FF8980" d="M33 14.656c9.815 0 17.783 7.9 17.978 17.715 0-.127.01-.244.01-.371 0-9.99-8.056-18.086-17.988-18.086S15.012 22.01 15.012 32c0 .127.01.244.01.371.195-9.814 8.164-17.715 17.978-17.715"/><path fill="#EFF3F5" d="M31.467 19.197c.488.528.732 1.162.732 1.914s-.244 1.387-.732 1.924-1.104.8-1.826.8c-.723 0-1.338-.263-1.817-.79-.488-.527-.722-1.162-.722-1.914s.244-1.387.732-1.924a2.37 2.37 0 0 1 1.826-.8c.723 0 1.328.263 1.807.79m6.885-.498L29.69 30.584h-2.178l8.662-11.885zM30.334 22a1.4 1.4 0 0 0 .273-.86c0-.341-.097-.624-.283-.859q-.293-.351-.703-.351a.83.83 0 0 0-.683.351 1.4 1.4 0 0 0-.274.86c0 .341.098.625.283.859q.294.351.703.352a.83.83 0 0 0 .684-.352m7.851 4.082c.489.527.723 1.162.723 1.914s-.244 1.387-.732 1.924c-.489.537-1.094.8-1.826.8a2.38 2.38 0 0 1-1.817-.79c-.488-.528-.723-1.162-.723-1.914s.245-1.387.733-1.924 1.094-.801 1.826-.801q1.084 0 1.816.791m-1.103 2.842a1.4 1.4 0 0 0 .273-.86q-.002-.51-.283-.859-.293-.351-.703-.351a.83.83 0 0 0-.684.351 1.4 1.4 0 0 0-.273.86c0 .341.098.624.283.859q.294.351.703.351a.83.83 0 0 0 .684-.351M28.898 42.918c-.83.82-1.865 1.23-3.095 1.23s-2.256-.41-3.096-1.23-1.25-1.836-1.25-3.066c0-1.221.42-2.246 1.25-3.067.83-.82 1.865-1.23 3.096-1.23 1.23 0 2.256.41 3.095 1.23s1.25 1.836 1.25 3.067c0 1.22-.42 2.246-1.25 3.066m-1.025-5.195a2.76 2.76 0 0 0-2.07-.88c-.82 0-1.514.294-2.07.88-.567.586-.84 1.299-.84 2.129 0 .84.283 1.543.84 2.129a2.76 2.76 0 0 0 2.07.878c.82 0 1.513-.293 2.07-.879.566-.585.84-1.298.84-2.128 0-.84-.274-1.543-.84-2.13m5.43-.655v2.285h3.662v1.3h-3.662v3.417h-1.397v-8.3h5.508l-.01 1.308h-4.101zm7.138 0v2.285h3.662v1.3h-3.662v3.417h-1.396v-8.3h5.508l-.01 1.308h-4.102z"/></g><defs><clipPath id="a"><path fill="#fff" d="M8 7h50v50H8z"/></clipPath></defs></svg>