<svg width="18" height="18" viewBox="0 0 18 18" fill="none" xmlns="http://www.w3.org/2000/svg">
<path d="M17.8089 9.2025C17.8089 8.61 17.7564 8.0475 17.6664 7.5H9.19141V10.8825H14.0439C13.8264 11.9925 13.1889 12.93 12.2439 13.5675V15.8175H15.1389C16.8339 14.25 17.8089 11.94 17.8089 9.2025Z" fill="#4285F4"/>
<path d="M9.19119 18.0003C11.6212 18.0003 13.6537 17.1903 15.1387 15.8178L12.2437 13.5678C11.4337 14.1078 10.4062 14.4378 9.19119 14.4378C6.84369 14.4378 4.85619 12.8553 4.14369 10.7178H1.15869V13.0353C2.63619 15.9753 5.67369 18.0003 9.19119 18.0003Z" fill="#34A853"/>
<path d="M4.14391 10.7173C3.95641 10.1773 3.85891 9.59984 3.85891 8.99984C3.85891 8.39984 3.96391 7.82234 4.14391 7.28234V4.96484H1.15891C0.543905 6.17984 0.191406 7.54484 0.191406 8.99984C0.191406 10.4548 0.543905 11.8198 1.15891 13.0348L4.14391 10.7173Z" fill="#FBBC05"/>
<path d="M9.19119 3.5625C10.5187 3.5625 11.7037 4.02 12.6412 4.9125L15.2062 2.3475C13.6537 0.892501 11.6212 0 9.19119 0C5.67369 0 2.63619 2.025 1.15869 4.965L4.14369 7.2825C4.85619 5.145 6.84369 3.5625 9.19119 3.5625Z" fill="#EA4335"/>
</svg>
