<svg width="22" height="22" viewBox="0 0 22 22" fill="none" xmlns="http://www.w3.org/2000/svg">
<rect x="1.8335" y="1.83301" width="18.3333" height="18.3333" rx="2" fill="#0476BC"/>
<path fill-rule="evenodd" clip-rule="evenodd" d="M8.60542 6.54678C8.60542 7.11745 8.1709 7.57928 7.4914 7.57928C6.83836 7.57928 6.40385 7.11745 6.4173 6.54678C6.40385 5.94838 6.83835 5.5 7.50441 5.5C8.17089 5.5 8.59239 5.94838 8.60542 6.54678ZM6.47193 15.0421V8.39493H8.53776V15.0416H6.47193V15.0421Z" fill="white"/>
<path fill-rule="evenodd" clip-rule="evenodd" d="M10.1933 10.5157C10.1933 9.68663 10.166 8.97981 10.1387 8.39527H11.933L12.0284 9.3059H12.0692C12.3411 8.88442 13.0206 8.24609 14.1216 8.24609C15.4806 8.24609 16.5001 9.14328 16.5001 11.0998V15.0424H14.4342V11.3587C14.4342 10.5019 14.1354 9.91775 13.3879 9.91775C12.8168 9.91775 12.4772 10.3119 12.3415 10.6922C12.2869 10.8284 12.26 11.0183 12.26 11.2091V15.0424H10.1941V10.5157H10.1933Z" fill="white"/>
</svg>
